<?xml version="1.0" encoding="UTF-8"?>
<svg height="16px" viewBox="0 0 16 16" width="16px" xmlns="http://www.w3.org/2000/svg">
    <path d="m 11.449219 3.402344 c 0.351562 -0.339844 0.820312 -0.542969 1.3125 -0.5625 c -0.023438 0.492187 -0.222657 0.957031 -0.566407 1.3125 l -2.773437 2.773437 l 0.007813 0.03125 l 0.078124 0.210938 l 0.03125 0.105469 c 0.023438 0.113281 0.039063 0.226562 0.039063 0.339843 c -0.003906 0.875 -0.714844 1.585938 -1.59375 1.585938 c -0.875 0 -1.585937 -0.710938 -1.589844 -1.585938 c 0 -0.113281 0.011719 -0.226562 0.039063 -0.335937 l 0.039062 -0.128906 l 0.0625 -0.183594 l 0.011719 -0.039063 l 0.015625 -0.015625 c 0.15625 -0.3125 0.410156 -0.5625 0.71875 -0.71875 l 0.019531 -0.015625 l 0.035157 -0.011719 l 0.1875 -0.066406 l 0.125 -0.039062 c 0.222656 -0.050782 0.453124 -0.050782 0.675781 0 l 0.125 0.039062 l 0.183593 0.066406 l 0.039063 0.011719 z m 3.484375 4.210937 c 0 1.851563 -0.746094 3.625 -2.070313 4.917969 l -1.503906 -1.503906 c 1.488281 -1.421875 1.875 -3.652344 0.953125 -5.492188 l 0.632812 -0.632812 c 0.34375 -0.347656 0.597657 -0.773438 0.734376 -1.242188 c 0.816406 1.15625 1.253906 2.539063 1.253906 3.953125 z m -6.898438 -6.894531 c -2.800781 -0.003906 -5.324218 1.691406 -6.382812 4.285156 c -1.058594 2.589844 -0.445313 5.566406 1.554687 7.527344 l 1.503907 -1.503906 c -1.683594 -1.617188 -1.945313 -4.214844 -0.617188 -6.132813 c 1.324219 -1.921875 3.847656 -2.597656 5.957031 -1.59375 l 0.648438 -0.648437 c 0.34375 -0.339844 0.765625 -0.589844 1.226562 -0.730469 c -1.144531 -0.785156 -2.5 -1.207031 -3.890625 -1.203125 z m 0 0" fill="#241f31"/>
</svg>
