<?xml version="1.0" encoding="UTF-8"?>
<svg height="128px" viewBox="0 0 128 128" width="128px" xmlns="http://www.w3.org/2000/svg" xmlns:xlink="http://www.w3.org/1999/xlink">
    <linearGradient id="a" gradientUnits="userSpaceOnUse" x1="26.35500204332" x2="101.22508571751" y1="58.30653552166" y2="58.30653552166">
        <stop offset="1" stop-color="#c0c0c0"/>
        <stop offset="1" stop-color="#c0c0c0" stop-opacity="0"/>
    </linearGradient>
    <path d="m 123.789062 62.738281 c 0 33.136719 -26.863281 60 -60 60 c -33.136718 0 -60 -26.863281 -60 -60 s 26.863282 -60 60 -60 c 33.136719 0 60 26.863281 60 60 z m 0 0" fill="#deddda"/>
    <path d="m 63.789062 5.039062 c 30.929688 0 56 25.070313 56 56 v 2 c 0 30.925782 -25.070312 56 -56 56 c -30.925781 0 -56 -25.074218 -56 -56 v -2 c 0 -30.929687 25.074219 -56 56 -56 z m 0 0" fill="#d5d3cf"/>
    <path d="m 123.789062 61.039062 c 0 33.136719 -26.863281 60 -60 60 c -33.136718 0 -60 -26.863281 -60 -60 c 0 -33.136718 26.863282 -60 60 -60 c 33.136719 0 60 26.863282 60 60 z m 0 0" fill="#f6f5f4"/>
    <path d="m 117.789062 61.039062 c 0 29.824219 -24.175781 54 -54 54 c -29.820312 0 -54 -24.175781 -54 -54 c 0 -29.824218 24.179688 -54 54 -54 c 29.824219 0 54 24.175782 54 54 z m 0 0" fill="#1a252f"/>
    <path d="m 82.3125 40.8125 c 1.925781 -1.851562 4.457031 -2.9375 7.125 -3.058594 c -0.121094 2.667969 -1.207031 5.199219 -3.058594 7.125 l -15.066406 15.066406 l 0.050781 0.160157 l 0.410157 1.148437 l 0.179687 0.578125 c 0.132813 0.605469 0.203125 1.222657 0.207031 1.839844 c -0.015625 4.761719 -3.878906 8.613281 -8.640625 8.613281 s -8.625 -3.851562 -8.636719 -8.613281 c 0 -0.617187 0.070313 -1.230469 0.207032 -1.832031 l 0.210937 -0.691406 l 0.339844 -0.992188 l 0.074219 -0.210938 l 0.085937 -0.085937 c 0.84375 -1.691406 2.210938 -3.058594 3.902344 -3.898437 l 0.089844 -0.09375 l 0.207031 -0.070313 l 1.003906 -0.34375 l 0.679688 -0.214844 c 1.207031 -0.273437 2.464844 -0.273437 3.675781 0 l 0.679687 0.214844 l 1 0.34375 l 0.207032 0.070313 z m 18.914062 22.859375 c 0.007813 10.050781 -4.039062 19.679687 -11.226562 26.703125 l -8.164062 -8.164062 c 8.082031 -7.726563 10.179687 -19.824219 5.175781 -29.824219 l 3.433593 -3.429688 c 1.863282 -1.886719 3.238282 -4.203125 3.992188 -6.746093 c 4.421875 6.28125 6.792969 13.777343 6.789062 21.460937 z m -37.4375 -37.4375 c -15.203124 -0.003906 -28.902343 9.191406 -34.652343 23.265625 c -5.753907 14.074219 -2.417969 30.230469 8.441406 40.875 l 8.164063 -8.164062 c -9.140626 -8.773438 -10.566407 -22.882813 -3.363282 -33.308594 c 7.199219 -10.425782 20.898438 -14.085938 32.339844 -8.644532 l 3.519531 -3.519531 c 1.867188 -1.847656 4.160157 -3.207031 6.675781 -3.964843 c -6.214843 -4.265626 -13.582031 -6.546876 -21.125 -6.539063 z m 0 0" fill="url(#a)"/>
</svg>
